<svg xmlns="http://www.w3.org/2000/svg" width="313.5" height="100"><path d="M92.576 61.574l-3.684 8.689h-6.764l16.993-38.498h6.654l16.828 38.498h-6.929l-3.685-8.689H92.576zm9.679-22.876l-7.259 17.103h14.518l-7.259-17.103zm51.258-3.245l-2.694 5.719c-4.18-2.529-8.359-3.574-11.273-3.574-3.795 0-6.27 1.43-6.27 4.014 0 8.414 20.788 3.905 20.732 17.763 0 6.874-6.049 11.107-14.518 11.107-6.049 0-11.769-2.477-15.728-6.104l2.805-5.608c3.959 3.631 8.909 5.608 13.033 5.608 4.51 0 7.204-1.704 7.204-4.674 0-8.579-20.787-3.795-20.787-17.488 0-6.599 5.664-10.724 14.023-10.724 5.004.002 9.899 1.597 13.473 3.961zm23.431-3.684c9.679 0 15.233 4.785 15.233 13.144 0 8.688-5.554 13.748-15.233 13.748h-8.854v11.604h-6.489V31.769h15.343zm-8.854 21.062h8.579c5.939 0 9.293-2.53 9.293-7.754 0-5.06-3.354-7.479-9.293-7.479h-8.579v15.233zm68.141-1.815c0 11-8.909 19.523-20.402 19.523s-20.402-8.523-20.402-19.523c0-11.053 8.909-19.412 20.402-19.412s20.402 8.414 20.402 19.412zm-34.206 0c0 7.646 6.324 13.693 13.858 13.693 7.534 0 13.693-6.049 13.693-13.693 0-7.644-6.159-13.583-13.693-13.583-7.589 0-13.858 5.939-13.858 13.583zm67.262-15.563l-2.695 5.719c-4.178-2.529-8.357-3.574-11.273-3.574-3.793 0-6.269 1.43-6.269 4.014 0 8.414 20.788 3.905 20.731 17.763 0 6.874-6.049 11.107-14.518 11.107-6.052 0-11.771-2.477-15.729-6.104l2.805-5.608c3.959 3.631 8.909 5.608 13.034 5.608 4.508 0 7.203-1.704 7.203-4.674 0-8.579-20.787-3.795-20.787-17.488 0-6.599 5.664-10.724 14.021-10.724 5.008.002 9.903 1.597 13.477 3.961zm14.578 2.145v10.394h18.807v5.828h-18.807v10.615h21.666v5.828h-28.156V31.769h27.496v5.83l-21.006-.001z" fill="#FFF"/><radialGradient id="a" cx="561.64" cy="179.718" r="26.286" gradientTransform="matrix(0 1 1 0 -137.307 -506.377)" gradientUnits="userSpaceOnUse"><stop offset=".143" stop-color="#d5effc"/><stop offset=".842" stop-color="#3c8ec6"/><stop offset="1" stop-color="#39c"/></radialGradient><path fill="url(#a)" d="M67.823 57.787c.154-1.553 1.451-20.462-14.797-29.05-7.596-4.018-17.848-3.964-23.477 1.74-9.948 10.068-1.514 20.621 1.642 21.669.12.035.075-.047.044-.174-4.996-19.942 29.742-23.512 35.881 5.71.218 1.035.615 1.011.707.105z"/><radialGradient id="b" cx="475.332" cy="-726.447" r="19.084" gradientTransform="matrix(1 0 0 -1 -432 -666)" gradientUnits="userSpaceOnUse"><stop offset=".143" stop-color="#fee588"/><stop offset=".564" stop-color="#f79b30"/><stop offset=".687" stop-color="#f58b2d"/><stop offset=".888" stop-color="#f3752a"/><stop offset="1" stop-color="#f36c29"/></radialGradient><path fill="url(#b)" d="M27.743 81.9c1.55.147 20.459 1.439 29.049-14.805 4.018-7.599 3.963-17.853-1.737-23.479-10.073-9.947-20.625-1.516-21.673 1.646-.025.065.074.065.172.044 19.944-4.996 23.512 29.744-5.705 35.883-1.038.215-1.015.611-.106.711z"/><radialGradient id="c" cx="-415.647" cy="-620.671" r="26.288" gradientTransform="matrix(0 -1 -1 0 -591.623 -371.307)" gradientUnits="userSpaceOnUse"><stop offset="0" stop-color="#fcb116"/><stop offset=".193" stop-color="#fbb318"/><stop offset=".335" stop-color="#f9b91c"/><stop offset=".461" stop-color="#f6c323"/><stop offset=".577" stop-color="#f4d12d"/><stop offset=".673" stop-color="#f0e03a"/><stop offset=".744" stop-color="#e5d534"/><stop offset=".865" stop-color="#cfbd24"/><stop offset="1" stop-color="#b19e11"/></radialGradient><path fill="url(#c)" d="M3.634 41.813c-.155 1.552-1.448 20.46 14.801 29.052 7.595 4.018 17.848 3.962 23.476-1.741 9.948-10.069 1.518-20.621-1.645-21.669-.131-.047-.088 0-.045.172C45.22 67.57 10.48 71.137 4.34 41.919c-.219-1.038-.613-1.011-.706-.106z"/><radialGradient id="d" cx="473.191" cy="-709.119" r="26.288" gradientTransform="matrix(1 0 0 -1 -432 -666)" gradientUnits="userSpaceOnUse"><stop offset="0" stop-color="#a1c43a"/><stop offset=".455" stop-color="#a0cc3a"/><stop offset="1" stop-color="#3c943a"/></radialGradient><path fill="url(#d)" d="M43.715 17.704c-1.549-.153-20.46-1.444-29.05 14.803-4.016 7.595-3.963 17.847 1.74 23.474 10.069 9.949 20.621 1.521 21.67-1.645.022-.09.022-.09-.172-.041-19.941 4.996-23.508-29.746 5.708-35.884 1.042-.216 1.01-.612.104-.707z"/><g opacity=".6"><radialGradient id="e" cx="434.848" cy="-357.278" r="30.374" gradientTransform="matrix(1.0987 0 0 -1.6216 -441.9 -504.471)" gradientUnits="userSpaceOnUse"><stop offset="0" stop-color="#f9e788"/><stop offset="1" stop-color="#fff"/></radialGradient><path opacity=".38" fill="url(#e)" d="M35.729 30.865c-2.779 0-5.424.53-7.83 1.492-7.272 9.464.331 18.803 3.291 19.79.12.035.075-.047.044-.174-3.052-12.189 8.743-18.262 19.776-14.465-3.684-4.064-9.163-6.643-15.281-6.643z"/><radialGradient id="f" cx="434.85" cy="-357.281" r="30.373" gradientTransform="matrix(1.0987 0 0 -1.6216 -441.9 -504.471)" gradientUnits="userSpaceOnUse"><stop offset="0" stop-color="#f9e788"/><stop offset="1" stop-color="#fff"/></radialGradient><path opacity=".38" fill="url(#f)" d="M33.381 45.264c-.025.065.074.065.172.044 12.048-3.02 18.119 8.458 14.6 19.377 4.67-3.473 7.668-8.848 7.668-14.88 0-2.354-.456-4.604-1.286-6.681-9.912-9.166-20.123-.97-21.154 2.14z"/><radialGradient id="g" cx="434.851" cy="-357.277" r="30.368" gradientTransform="matrix(1.0987 0 0 -1.6216 -441.9 -504.471)" gradientUnits="userSpaceOnUse"><stop offset="0" stop-color="#f9e788"/><stop offset="1" stop-color="#fff"/></radialGradient><path opacity=".38" fill="url(#g)" d="M40.266 47.455c-.131-.047-.088 0-.045.172 3.055 12.193-8.742 18.262-19.775 14.465 3.684 4.063 9.164 6.643 15.284 6.643a21.15 21.15 0 007.828-1.484c7.275-9.468-.327-18.813-3.292-19.796z"/><radialGradient id="h" cx="434.848" cy="-357.278" r="30.373" gradientTransform="matrix(1.0987 0 0 -1.6216 -441.9 -504.471)" gradientUnits="userSpaceOnUse"><stop offset="0" stop-color="#f9e788"/><stop offset="1" stop-color="#fff"/></radialGradient><path opacity=".38" fill="url(#h)" d="M38.075 54.336c.022-.09.022-.09-.172-.041-12.045 3.016-18.115-8.46-14.597-19.376-4.672 3.468-7.67 8.846-7.67 14.886 0 2.345.458 4.595 1.285 6.669 9.912 9.167 20.124.971 21.154-2.138z"/></g></svg>